<svg t="1710467430537" class="icon" viewBox="0 0 1024 1024" version="1.1" xmlns="http://www.w3.org/2000/svg" p-id="5062"
    width="200" height="200">
    <path
        d="M838.004364 518.842182a30.72 30.72 0 0 1-8.238546 14.894545l-311.063273 311.063273a30.72 30.72 0 0 1-43.61309 0 30.72 30.72 0 0 1 0-43.613091l289.419636-289.419636-289.373091-289.326546a30.72 30.72 0 0 1 0-43.613091 30.72 30.72 0 0 1 43.566545 0l311.109819 311.109819a30.813091 30.813091 0 0 1 8.192 28.904727z m-280.017455 0a30.72 30.72 0 0 1-8.238545 14.894545L238.685091 844.8a30.72 30.72 0 0 1-43.566546 0 30.72 30.72 0 0 1 0-43.613091l289.373091-289.419636L195.118545 222.487273a30.72 30.72 0 0 1 0-43.613091 30.72 30.72 0 0 1 43.613091 0l311.063273 311.109818a30.813091 30.813091 0 0 1 8.192 28.904727z"
        p-id="5063"></path>
</svg>