<svg t="1710385422261" class="icon" viewBox="0 0 1024 1024" version="1.1" xmlns="http://www.w3.org/2000/svg" p-id="8929"
    width="200" height="200">
    <path
        d="M859.136 195.392L517.632 65.024a15.36 15.36 0 0 0-11.2 0L164.864 195.392a17.856 17.856 0 0 0-11.072 16.832v377.984c0 55.296 19.136 109.376 56.96 160.768 29.44 40 70.272 78.464 121.344 114.368 86.08 60.416 170.88 92.352 174.4 93.696a16.32 16.32 0 0 0 11.008-0.064c3.584-1.344 88.32-33.28 174.4-93.696 51.072-35.84 91.904-74.304 121.344-114.368 37.76-51.328 56.96-105.408 56.96-160.768V212.224a17.856 17.856 0 0 0-11.072-16.832z m-150.976 224.896L496 639.424a35.328 35.328 0 0 1-25.472 10.944h-0.512a35.328 35.328 0 0 1-25.664-11.712L322.688 505.344a39.104 39.104 0 0 1 1.152-53.568 35.136 35.136 0 0 1 51.2 1.216l96.256 105.408 185.984-192.064a35.2 35.2 0 0 1 51.264 0.32 39.168 39.168 0 0 1-0.384 53.632z"
        p-id="8930"></path>
</svg>