<svg t="1696750963475" class="icon" viewBox="0 0 1024 1024" version="1.1" xmlns="http://www.w3.org/2000/svg" p-id="4750"
    width="200" height="200">
    <path
        d="M708.266667 746.666667c-8.533333 0-21.333333-4.266667-25.6-12.8l-170.666667-170.666667-170.666667 170.666667c-8.533333 8.533333-17.066667 12.8-25.6 12.8-8.533333 0-21.333333-4.266667-25.6-12.8-8.533333-8.533333-12.8-17.066667-12.8-25.6 0-8.533333 4.266667-21.333333 12.8-25.6l170.666667-170.666667-170.666667-170.666667c-17.066667-17.066667-17.066667-38.4 0-55.466666 8.533333-8.533333 17.066667-12.8 25.6-12.8 8.533333 0 21.333333 4.266667 25.6 12.8l170.666667 170.666666 170.666667-170.666666c8.533333-8.533333 17.066667-12.8 25.6-12.8 8.533333 0 21.333333 4.266667 25.6 12.8 17.066667 17.066667 17.066667 38.4 0 55.466666l-170.666667 170.666667 170.666667 170.666667c17.066667 17.066667 17.066667 38.4 0 55.466666-4.266667 4.266667-12.8 8.533333-25.6 8.533334z"
        p-id="4751"></path>
</svg>