<svg t="1712654426658" class="icon" viewBox="0 0 1024 1024" version="1.1" xmlns="http://www.w3.org/2000/svg" p-id="6411"
    width="200" height="200">
    <path d="M0 0h1024v1024H0z" opacity=".01" p-id="6412"></path>
    <path
        d="M343.074133 57.480533A34.133333 34.133333 0 0 1 375.466667 34.133333h273.066666a34.133333 34.133333 0 0 1 32.392534 23.3472L695.876267 102.4H887.466667a68.266667 68.266667 0 0 1 68.266666 68.266667v68.266666a68.266667 68.266667 0 0 1-68.266666 68.266667v512a170.666667 170.666667 0 0 1-170.666667 170.666667H307.2a170.666667 170.666667 0 0 1-170.666667-170.666667V307.2a68.266667 68.266667 0 0 1-68.266666-68.266667V170.666667a68.266667 68.266667 0 0 1 68.266666-68.266667h191.5904l14.9504-44.919467zM716.8 307.2H204.8v512a102.4 102.4 0 0 0 102.4 102.4h409.6a102.4 102.4 0 0 0 102.4-102.4V307.2h-102.4z m170.666667-68.266667V170.666667h-216.1664a34.133333 34.133333 0 0 1-32.392534-23.3472L623.9232 102.4h-223.8464l-14.984533 44.919467a34.133333 34.133333 0 0 1-32.392534 23.3472H136.533333v68.266666h750.933334z m-477.866667 204.8a34.133333 34.133333 0 1 0-68.266667 0v341.333334a34.133333 34.133333 0 1 0 68.266667 0V443.733333z m273.066667 0a34.133333 34.133333 0 1 0-68.266667 0v341.333334a34.133333 34.133333 0 1 0 68.266667 0V443.733333z"
        p-id="6413"></path>
</svg>